<?xml version="1.0" encoding="utf-8"?>
<!-- Generator: Adobe Illustrator 27.5.0, SVG Export Plug-In . SVG Version: 6.00 Build 0)  -->
<svg version="1.1" xmlns="http://www.w3.org/2000/svg" xmlns:xlink="http://www.w3.org/1999/xlink" x="0px" y="0px"
	 viewBox="0 0 500 500" style="enable-background:new 0 0 500 500;" xml:space="preserve">
<g id="BACKGROUND">
	
		<linearGradient id="XMLID_00000067958916665639550140000011993239976719073420_" gradientUnits="userSpaceOnUse" x1="118.5317" y1="83.5335" x2="410.8356" y2="453.6518">
		<stop  offset="0" style="stop-color:#FEFEFE"/>
		<stop  offset="1" style="stop-color:#EAEDEE"/>
	</linearGradient>
	
		<rect id="XMLID_00000116221077905732356550000011261936127486510994_" style="fill:url(#XMLID_00000067958916665639550140000011993239976719073420_);" width="500" height="500"/>
</g>
<g id="OBJECTS">
	<linearGradient id="SVGID_1_" gradientUnits="userSpaceOnUse" x1="176.9322" y1="158.6482" x2="243.3155" y2="190.5467">
		<stop  offset="0" style="stop-color:#33047E"/>
		<stop  offset="0.0622" style="stop-color:#641B9D;stop-opacity:0.8328"/>
		<stop  offset="0.1405" style="stop-color:#9B36BF;stop-opacity:0.6223"/>
		<stop  offset="0.2135" style="stop-color:#C64BDA;stop-opacity:0.4263"/>
		<stop  offset="0.2786" style="stop-color:#E55AEE;stop-opacity:0.2511"/>
		<stop  offset="0.3337" style="stop-color:#F863FA;stop-opacity:0.1031"/>
		<stop  offset="0.3721" style="stop-color:#FF66FE;stop-opacity:0"/>
	</linearGradient>
	<path style="opacity:0.6;fill:url(#SVGID_1_);" d="M256.337,155.124c-1.598-7.38-7.754-13.088-15.292-13.544
		c-0.285-0.017-0.566-0.026-0.84-0.026h-46.626c-19.449,2.757-26.769,32.459-26.769,32.459h48.688c1.937,0,3.149,0.446,3.633,1.332
		c0.485,0.89,0.727,1.979,0.727,3.27v2.665c0,1.598-0.514,3.47-1.54,5.62c-0.967,2.027-2.996,3.343-5.242,3.343h-38.757
		l30.521,31.005c6.457-0.484,13.36-1.411,20.71-2.785l1.625-0.506c9.181-2.858,16.843-9.26,21.286-17.788h0
		c7.322-15.84,8.868-26.461,8.651-39.742C257.089,159.044,256.772,157.13,256.337,155.124z"/>
	<g>
		<text transform="matrix(1 0 0 1 135.6211 354.6722)" style="fill:#474747; font-family:'Montserrat-Bold'; font-size:40px;">LogoName</text>
		<text transform="matrix(1 0 0 1 188.4095 382.5968)" style="fill:#474747; font-family:'OpenSans'; font-size:21px;">Tagline Here</text>
		
			<radialGradient id="SVGID_00000055707375404008419080000006415036309509048988_" cx="250" cy="356.0666" r="88.327" gradientTransform="matrix(1 0 0 0.0897 0 272.5997)" gradientUnits="userSpaceOnUse">
			<stop  offset="5.800000e-07" style="stop-color:#606060"/>
			<stop  offset="0.9997" style="stop-color:#EAEDEE;stop-opacity:0"/>
		</radialGradient>
		
			<ellipse style="opacity:0.3;fill:url(#SVGID_00000055707375404008419080000006415036309509048988_);" cx="250" cy="304.537" rx="124.761" ry="10.991"/>
		
			<linearGradient id="SVGID_00000102524902895532204990000014916754719877398404_" gradientUnits="userSpaceOnUse" x1="210.3239" y1="230.386" x2="249.6536" y2="119.7441">
			<stop  offset="0" style="stop-color:#7546EA"/>
			<stop  offset="0.2075" style="stop-color:#974EEF"/>
			<stop  offset="0.5768" style="stop-color:#CF5CF8"/>
			<stop  offset="0.8519" style="stop-color:#F264FD"/>
			<stop  offset="1" style="stop-color:#FF67FF"/>
		</linearGradient>
		<path style="fill:url(#SVGID_00000102524902895532204990000014916754719877398404_);" d="M295.558,178.283
			c2.758-57.671-48.278-66.57-48.278-66.57c8.618,12.12,14.693,27.963,15.03,48.629c0.46,28.166-16.639,67.886-43.436,91.244
			c-41.229,35.94-99.859,37.039-99.859,37.039C225.654,288.625,292.644,239.208,295.558,178.283z"/>
		
			<linearGradient id="SVGID_00000095325296648961843520000011062243150691645884_" gradientUnits="userSpaceOnUse" x1="332.0903" y1="196.4938" x2="385.1062" y2="142.9016">
			<stop  offset="0" style="stop-color:#7546EA"/>
			<stop  offset="0.2075" style="stop-color:#974EEF"/>
			<stop  offset="0.5768" style="stop-color:#CF5CF8"/>
			<stop  offset="0.8519" style="stop-color:#F264FD"/>
			<stop  offset="1" style="stop-color:#FF67FF"/>
		</linearGradient>
		<polygon style="fill:url(#SVGID_00000095325296648961843520000011062243150691645884_);" points="362.742,141.554 
			328.347,171.832 342.153,205.503 414.579,141.554 		"/>
		
			<linearGradient id="SVGID_00000102506269279094384570000004510418951490255789_" gradientUnits="userSpaceOnUse" x1="332.4446" y1="187.928" x2="380.2741" y2="153.4966">
			<stop  offset="0" style="stop-color:#33047E"/>
			<stop  offset="0.0622" style="stop-color:#641B9D;stop-opacity:0.8328"/>
			<stop  offset="0.1405" style="stop-color:#9B36BF;stop-opacity:0.6223"/>
			<stop  offset="0.2135" style="stop-color:#C64BDA;stop-opacity:0.4263"/>
			<stop  offset="0.2786" style="stop-color:#E55AEE;stop-opacity:0.2511"/>
			<stop  offset="0.3337" style="stop-color:#F863FA;stop-opacity:0.1031"/>
			<stop  offset="0.3721" style="stop-color:#FF66FE;stop-opacity:0"/>
		</linearGradient>
		<polygon style="opacity:0.6;fill:url(#SVGID_00000102506269279094384570000004510418951490255789_);" points="362.742,141.554 
			328.347,171.832 342.153,205.503 414.579,141.554 		"/>
		
			<linearGradient id="SVGID_00000129926351983713380380000007523874628227929002_" gradientUnits="userSpaceOnUse" x1="115.6158" y1="254.3963" x2="157.9709" y2="153.2627">
			<stop  offset="0" style="stop-color:#7546EA"/>
			<stop  offset="0.2075" style="stop-color:#974EEF"/>
			<stop  offset="0.5768" style="stop-color:#CF5CF8"/>
			<stop  offset="0.8519" style="stop-color:#F264FD"/>
			<stop  offset="1" style="stop-color:#FF67FF"/>
		</linearGradient>
		<path style="fill:url(#SVGID_00000129926351983713380380000007523874628227929002_);" d="M147.915,225.85l5.087-14.049
			l13.807-37.788c0,0,7.32-29.702,26.769-32.459h-61.408l-46.75,128.381h20.044c15.885,0,30.07-9.945,35.485-24.878L147.915,225.85z
			"/>
		
			<linearGradient id="SVGID_00000116207996476117833970000010643933380087646855_" gradientUnits="userSpaceOnUse" x1="159.0083" y1="197.2177" x2="203.0922" y2="252.5387">
			<stop  offset="0" style="stop-color:#7546EA"/>
			<stop  offset="0.2075" style="stop-color:#974EEF"/>
			<stop  offset="0.5768" style="stop-color:#CF5CF8"/>
			<stop  offset="0.8519" style="stop-color:#F264FD"/>
			<stop  offset="1" style="stop-color:#FF67FF"/>
		</linearGradient>
		<path style="fill:url(#SVGID_00000116207996476117833970000010643933380087646855_);" d="M153.002,211.801l-3.879,10.714
			l43.948,40.587c7.741-4.215,15.345-9.296,22.387-15.435c2.656-2.315,5.248-4.854,7.766-7.566l-18.385-18.854l-30.521-31.005
			L153.002,211.801z"/>
		
			<linearGradient id="SVGID_00000013873290642569352590000006319854487258300091_" gradientUnits="userSpaceOnUse" x1="176.9322" y1="158.6482" x2="243.3155" y2="190.5467">
			<stop  offset="0" style="stop-color:#7546EA"/>
			<stop  offset="0.2075" style="stop-color:#974EEF"/>
			<stop  offset="0.5768" style="stop-color:#CF5CF8"/>
			<stop  offset="0.8519" style="stop-color:#F264FD"/>
			<stop  offset="1" style="stop-color:#FF67FF"/>
		</linearGradient>
		<path style="fill:url(#SVGID_00000013873290642569352590000006319854487258300091_);" d="M256.337,155.124
			c-1.598-7.38-7.754-13.088-15.292-13.544c-0.285-0.017-0.566-0.026-0.84-0.026h-46.626c-19.449,2.757-26.769,32.459-26.769,32.459
			h48.688c1.937,0,3.149,0.446,3.633,1.332c0.485,0.89,0.727,1.979,0.727,3.27v2.665c0,1.598-0.514,3.47-1.54,5.62
			c-0.967,2.027-2.996,3.343-5.242,3.343h-38.757l30.521,31.005c6.457-0.484,13.36-1.411,20.71-2.785l1.625-0.506
			c9.181-2.858,16.843-9.26,21.286-17.788h0c7.322-15.84,8.868-26.461,8.651-39.742C257.089,159.044,256.772,157.13,256.337,155.124
			z"/>
		
			<linearGradient id="SVGID_00000128469589101166749910000006065515505367053485_" gradientUnits="userSpaceOnUse" x1="188.4674" y1="207.8313" x2="217.0659" y2="171.2518">
			<stop  offset="0" style="stop-color:#33047E"/>
			<stop  offset="0.6046" style="stop-color:#FF66FE;stop-opacity:0"/>
		</linearGradient>
		<path style="opacity:0.6;fill:url(#SVGID_00000128469589101166749910000006065515505367053485_);" d="M256.337,155.124
			c-1.598-7.38-7.754-13.088-15.292-13.544c-0.285-0.017-0.566-0.026-0.84-0.026h-46.626c-19.449,2.757-26.769,32.459-26.769,32.459
			h48.688c1.937,0,3.149,0.446,3.633,1.332c0.485,0.89,0.727,1.979,0.727,3.27v2.665c0,1.598-0.514,3.47-1.54,5.62
			c-0.967,2.027-2.996,3.343-5.242,3.343h-38.757l30.521,31.005c6.457-0.484,13.36-1.411,20.71-2.785l1.625-0.506
			c9.181-2.858,16.843-9.26,21.286-17.788h0c7.322-15.84,8.868-26.461,8.651-39.742C257.089,159.044,256.772,157.13,256.337,155.124
			z"/>
		
			<linearGradient id="SVGID_00000149366940045015530510000010221371994778886574_" gradientUnits="userSpaceOnUse" x1="309.026" y1="214.7099" x2="267.5352" y2="252.7431">
			<stop  offset="0" style="stop-color:#7546EA"/>
			<stop  offset="0.2075" style="stop-color:#974EEF"/>
			<stop  offset="0.5768" style="stop-color:#CF5CF8"/>
			<stop  offset="0.8519" style="stop-color:#F264FD"/>
			<stop  offset="1" style="stop-color:#FF67FF"/>
		</linearGradient>
		<path style="fill:url(#SVGID_00000149366940045015530510000010221371994778886574_);" d="M249.035,260.648
			c-5.109,3.351-10.533,6.428-16.191,9.287h36.154l34.883-30.763l-9.865-30.45C285.834,228.705,270.501,246.565,249.035,260.648z"/>
		
			<linearGradient id="SVGID_00000111906762104952292500000011884288267420077210_" gradientUnits="userSpaceOnUse" x1="299.8067" y1="216.2904" x2="251.9771" y2="274.4927">
			<stop  offset="0" style="stop-color:#33047E"/>
			<stop  offset="0.0622" style="stop-color:#641B9D;stop-opacity:0.8328"/>
			<stop  offset="0.1405" style="stop-color:#9B36BF;stop-opacity:0.6223"/>
			<stop  offset="0.2135" style="stop-color:#C64BDA;stop-opacity:0.4263"/>
			<stop  offset="0.2786" style="stop-color:#E55AEE;stop-opacity:0.2511"/>
			<stop  offset="0.3337" style="stop-color:#F863FA;stop-opacity:0.1031"/>
			<stop  offset="0.3721" style="stop-color:#FF66FE;stop-opacity:0"/>
		</linearGradient>
		<path style="opacity:0.6;fill:url(#SVGID_00000111906762104952292500000011884288267420077210_);" d="M249.035,260.648
			c-5.109,3.351-10.533,6.428-16.191,9.287h36.154l34.883-30.763l-9.865-30.45C285.834,228.705,270.501,246.565,249.035,260.648z"/>
		
			<linearGradient id="SVGID_00000104700582968811478700000003740852253630495384_" gradientUnits="userSpaceOnUse" x1="345.9265" y1="282.6927" x2="297.5205" y2="152.4579">
			<stop  offset="0" style="stop-color:#7546EA"/>
			<stop  offset="0.2075" style="stop-color:#974EEF"/>
			<stop  offset="0.5768" style="stop-color:#CF5CF8"/>
			<stop  offset="0.8519" style="stop-color:#F264FD"/>
			<stop  offset="1" style="stop-color:#FF67FF"/>
		</linearGradient>
		<path style="fill:url(#SVGID_00000104700582968811478700000003740852253630495384_);" d="M342.153,205.503l-13.806-33.67
			l-3.836-9.589c-4.999-12.496-17.102-20.69-30.561-20.69l0,0c4.605,9.481,7.537,21.594,6.801,36.977
			c-0.499,10.436-4.115,23.637-8.059,33.27l11.19,27.372l2.997,7.319c5.806,14.18,19.609,23.444,34.932,23.444h26.261
			L342.153,205.503z"/>
	</g>
</g>
</svg>
